<?xml version="1.0" encoding="UTF-8"?>
<!-- Uploaded to: SVG Find, www.svgrepo.com, Generator: SVG Find Mixer Tools -->
<svg fill="#000000" width="800px" height="800px" version="1.1" viewBox="144 144 512 512" xmlns="http://www.w3.org/2000/svg">
 <g>
  <path d="m547.63 295.44c-3.8906-4.7578-7.2461-9.9297-9.9961-15.43-2.0938-6.1211-3.4961-12.457-4.1719-18.891-0.71875-15.188-6.3789-29.719-16.121-41.391-11.672-9.7461-26.207-15.406-41.391-16.125-6.4336-0.68359-12.77-2.082-18.895-4.1719-5.4961-2.75-10.672-6.1016-15.43-9.9961-11.441-10.586-26.094-17.047-41.625-18.359-15.512 1.3086-30.145 7.75-41.582 18.312-4.7578 3.8906-9.9336 7.2461-15.43 9.9961-6.1211 2.0977-12.457 3.4961-18.891 4.1719-15.203 0.71094-29.754 6.3711-41.441 16.125-9.7422 11.668-15.402 26.203-16.121 41.391-0.68359 6.4336-2.082 12.77-4.1719 18.891-2.75 5.4961-6.1055 10.672-9.9961 15.43-10.57 11.449-17.016 26.102-18.312 41.629 1.3086 15.512 7.75 30.145 18.312 41.578 3.8906 4.7578 7.2461 9.9336 9.9961 15.43 2.0977 6.1211 3.4961 12.457 4.1719 18.895 0.71875 15.184 6.3828 29.719 16.121 41.391 2.3398 2.2266 4.9219 4.1797 7.6992 5.8242-0.27734 0.92578-0.46875 1.875-0.56641 2.8359v141.7c-0.019531 2.8516 0.75 5.6562 2.2227 8.1016 1.4727 2.4453 3.5898 4.4375 6.1211 5.7539 2.4844 1.3867 5.3047 2.0469 8.1445 1.9102 2.8398-0.14062 5.582-1.0742 7.918-2.6992l38.57-25.664 38.574 25.664c2.5508 1.7422 5.5703 2.6758 8.6602 2.6758s6.1055-0.93359 8.6562-2.6758l38.574-25.664 38.574 25.664c3.1719 2.0898 6.9922 2.9609 10.758 2.457 3.7617-0.50781 7.2188-2.3594 9.7266-5.2109 2.5078-2.8516 3.8984-6.5156 3.918-10.312v-141.7c-0.10156-0.94531-0.28906-1.8789-0.56641-2.7891 2.7773-1.6445 5.3633-3.5977 7.6992-5.8242 9.7422-11.672 15.402-26.207 16.121-41.391 0.68359-6.4336 2.0859-12.77 4.1719-18.895 2.75-5.4961 6.1055-10.672 9.9961-15.43 10.57-11.449 17.016-26.098 18.312-41.625-1.3047-15.512-7.75-30.145-18.312-41.582zm-163.38 279.79-22.828-15.113c-2.543-1.7695-5.5625-2.7188-8.6602-2.7188-3.0938 0-6.1172 0.94922-8.6602 2.7188l-22.828 15.113v-105.22l2.7695 0.47266h0.003906c6.4297 0.68359 12.77 2.0859 18.891 4.1719 5.4961 2.7539 10.672 6.1055 15.43 9.9961 7.8125 6.4023 16.535 11.598 25.883 15.414zm94.465 0-22.828-15.113c-2.543-1.7695-5.5625-2.7188-8.6602-2.7188-3.0977 0-6.1172 0.94922-8.6602 2.7188l-22.828 15.113v-75.164c9.332-3.8203 18.039-9.0156 25.836-15.414 4.7578-3.8906 9.9336-7.2422 15.43-9.9961 6.1211-2.0938 12.457-3.4961 18.895-4.1719l2.7695-0.47266zm43.691-215.47c-5.5273 6.8008-10.18 14.262-13.855 22.215-3.168 8.4648-5.2852 17.293-6.2969 26.277-0.30469 8.4414-2.8008 16.664-7.2422 23.852-7.1836 4.4414-15.398 6.9375-23.84 7.2422-8.9883 1.0117-17.82 3.125-26.289 6.2969-7.9531 3.6758-15.418 8.332-22.215 13.855-6.3086 6.0078-14.156 10.152-22.672 11.98-8.5469-1.832-16.418-6.0039-22.734-12.043-6.8008-5.5273-14.266-10.18-22.215-13.855-8.4688-3.168-17.293-5.2852-26.277-6.2969-8.4453-0.30469-16.668-2.8008-23.852-7.2422-4.4414-7.1836-6.9375-15.398-7.2422-23.84-1.0156-8.9883-3.1289-17.816-6.3008-26.289-3.6758-7.9531-8.3281-15.418-13.852-22.215-6.0078-6.3086-10.156-14.156-11.984-22.672 1.8359-8.5469 6.0039-16.418 12.047-22.734 5.5234-6.8008 10.176-14.262 13.852-22.215 3.168-8.4688 5.2852-17.293 6.3008-26.277 0.30078-8.4453 2.7969-16.664 7.2422-23.852 7.1797-4.4414 15.395-6.9375 23.836-7.2422 8.9883-1.0117 17.82-3.1289 26.293-6.3008 7.9531-3.6758 15.414-8.3281 22.215-13.852 6.3086-6.0078 14.152-10.156 22.672-11.984 8.5469 1.8359 16.414 6.0039 22.734 12.047 6.7969 5.5234 14.262 10.176 22.215 13.855 8.4648 3.168 17.293 5.2812 26.273 6.2969 8.4453 0.30078 16.668 2.7969 23.855 7.2422 4.4414 7.1836 6.9375 15.395 7.2422 23.836 1.0117 8.9883 3.125 17.82 6.2969 26.293 3.6758 7.9531 8.332 15.414 13.855 22.215 6.0078 6.3086 10.152 14.152 11.98 22.672-1.8359 8.5469-6.0039 16.414-12.043 22.734z"/>
  <path d="m400 258.3c-20.879 0-40.902 8.2969-55.664 23.059-14.766 14.762-23.059 34.785-23.059 55.664 0 20.875 8.293 40.898 23.059 55.664 14.762 14.762 34.785 23.055 55.664 23.055 20.875 0 40.898-8.293 55.664-23.055 14.762-14.766 23.055-34.789 23.055-55.664-0.023438-20.871-8.3281-40.879-23.086-55.637-14.754-14.758-34.766-23.059-55.633-23.086zm0 125.95c-12.527 0-24.543-4.9766-33.398-13.832-8.8594-8.8594-13.836-20.871-13.836-33.398 0-12.527 4.9766-24.543 13.836-33.398 8.8555-8.8594 20.871-13.836 33.398-13.836 12.523 0 24.539 4.9766 33.398 13.836 8.8555 8.8555 13.832 20.871 13.832 33.398 0 12.527-4.9766 24.539-13.832 33.398-8.8594 8.8555-20.875 13.832-33.398 13.832z"/>
 </g>
</svg>