<?xml version="1.0" encoding="UTF-8"?>
<!DOCTYPE svg PUBLIC "-//W3C//DTD SVG 1.1//EN" "http://www.w3.org/Graphics/SVG/1.1/DTD/svg11.dtd">
<!-- Creator: CorelDRAW -->
<svg xmlns="http://www.w3.org/2000/svg" xml:space="preserve" width="2048px" height="2048px" style="shape-rendering:geometricPrecision; text-rendering:geometricPrecision; image-rendering:optimizeQuality; fill-rule:evenodd; clip-rule:evenodd"
viewBox="0 0 2048 2048"
 xmlns:xlink="http://www.w3.org/1999/xlink">
 <defs>
  <style type="text/css">
   <![CDATA[
    .fil2 {fill:none}
    .fil1 {fill:#424242}
    .fil0 {fill:#424242;fill-rule:nonzero}
   ]]>
  </style>
 </defs>
 <g id="Layer_x0020_1">
  <metadata id="CorelCorpID_0Corel-Layer"/>
  <g id="_325602304">
   <path id="_325601656" class="fil0" d="M619.946 1076.83l110.85 -110.85 -0.0011811 -0.0011811c9.37205,-9.37205 24.5681,-9.37205 33.9402,0l0.0862205 0.0885827 120.507 120.507 397.94 -397.94 -0.0011811 -0.0011811c9.37205,-9.37205 24.5681,-9.37205 33.9402,0l0.0862205 0.0885827 110.85 110.85 0.0011811 -0.0011811c9.37205,9.37205 9.37205,24.5681 0,33.9402l-0.0885827 0.0862205 -414.821 414.821 -110.937 110.937 0.0011811 0.0011811c-9.37205,9.37205 -24.5681,9.37205 -33.9402,0l-0.0862205 -0.0885827 -248.413 -248.413 -0.0011811 0.0011811c-9.37205,-9.37205 -9.37205,-24.5681 0,-33.9402l0.0885827 -0.0862205z"/>
   <path id="_325601632" class="fil1" d="M1024 255.999c424.154,0 768.001,343.846 768.001,768.001 0,424.154 -343.846,768.001 -768.001,768.001 -424.154,0 -768.001,-343.846 -768.001,-768.001 0,-424.154 343.846,-768.001 768.001,-768.001zm0 184.98c321.994,0 583.021,261.027 583.021,583.021 0,321.994 -261.027,583.021 -583.021,583.021 -321.994,0 -583.021,-261.027 -583.021,-583.021 0,-321.994 261.027,-583.021 583.021,-583.021z"/>
  </g>
 </g>
 <rect class="fil2" width="2048" height="2048"/>
</svg>
